<svg width="174" height="37" viewBox="0 0 174 37" fill="none" xmlns="http://www.w3.org/2000/svg">
<g clip-path="url(#clip0_191_340)">
<mask id="mask0_191_340" style="mask-type:luminance" maskUnits="userSpaceOnUse" x="0" y="0" width="174" height="37">
<path d="M173.774 0H0V37H173.774V0Z" fill="white"/>
</mask>
<g mask="url(#mask0_191_340)">
<path d="M14.9806 5.34988C15.3855 4.66071 15.9677 4.08845 16.6687 3.69058C17.3699 3.29271 18.1651 3.08325 18.9747 3.08325C19.7842 3.08325 20.5795 3.29271 21.2805 3.69058C21.9817 4.08845 22.5639 4.66071 22.9686 5.34988L35.7495 27.1114C36.1542 27.8005 36.3674 28.5823 36.3674 29.3782C36.3674 30.174 36.1542 30.9557 35.7495 31.6449C35.3446 32.3341 34.7625 32.9064 34.0615 33.3043C33.3604 33.7022 32.5651 33.9119 31.7555 33.9119H6.19296C5.38339 33.9119 4.58806 33.7022 3.88696 33.3043C3.18589 32.9064 2.60369 32.3341 2.19891 31.6449C1.79413 30.9557 1.58105 30.174 1.58105 29.3782C1.58106 28.5823 1.79415 27.8005 2.19893 27.1114L14.9806 5.34988Z" fill="#3772FF"/>
<path d="M18.8598 17.6157C19.3927 17.9094 19.7853 18.3989 19.9514 18.9771C20.1174 19.555 20.0433 20.1742 19.7453 20.6986L12.5192 33.9124H6.93408L15.7208 18.4852C15.8689 18.2255 16.0675 17.997 16.3053 17.8128C16.5432 17.6286 16.8157 17.4922 17.1072 17.4114C17.3986 17.3306 17.7034 17.3071 18.0042 17.3422C18.3049 17.3773 18.5956 17.4701 18.8598 17.6157Z" fill="#90DBFB"/>
<path d="M19.8809 33.916L24.0225 26.645C24.1704 26.3853 24.369 26.1567 24.6068 25.9724C24.8446 25.7881 25.1171 25.6516 25.4085 25.5708C25.7 25.4899 26.0048 25.4663 26.3056 25.5013C26.6063 25.5363 26.8972 25.6292 27.1613 25.7746C27.4256 25.92 27.6581 26.1152 27.8457 26.349C28.0332 26.5828 28.172 26.8506 28.2542 27.1371C28.3364 27.4237 28.3605 27.7233 28.3248 28.0189C28.2893 28.3146 28.1949 28.6004 28.0469 28.8601L25.1709 33.9107" fill="white"/>
<path d="M63.6293 26.5951H67.1707L60.7964 10.6963H57.0194L50.5979 26.5951H54.0446L55.4375 22.9623H62.2364L63.6293 26.5951ZM58.837 14.1272L61.1506 20.1369H56.5236L58.837 14.1272Z" fill="white"/>
<path d="M79.6801 10.3604H76.5876V16.6616C76.257 16.0786 75.3127 15.2937 73.3061 15.2937C70.0249 15.2937 67.7349 17.8276 67.7349 21.0567C67.7349 24.3979 70.0957 26.8646 73.4005 26.8646C74.9588 26.8646 76.1391 26.1919 76.6584 25.3173C76.6584 25.8331 76.7292 26.3713 76.7764 26.5955H79.7748C79.7276 26.147 79.6801 25.3398 79.6801 24.5998V10.3604ZM70.8981 21.0567C70.8981 19.0834 72.173 17.9622 73.7783 17.9622C75.3838 17.9622 76.6348 19.061 76.6348 21.0343C76.6348 23.0301 75.3838 24.1961 73.7783 24.1961C72.1259 24.1961 70.8981 23.0301 70.8981 21.0567Z" fill="white"/>
<path d="M85.99 26.5957V20.1375C85.99 18.9266 86.7928 17.9624 88.1621 17.9624C89.5785 17.9624 90.2159 18.8593 90.2159 20.0478V26.5957H93.3319V20.1375C93.3319 18.949 94.1347 17.9624 95.4804 17.9624C96.9205 17.9624 97.5342 18.8593 97.5342 20.0478V26.5957H100.579V19.4424C100.579 16.4824 98.5257 15.249 96.3775 15.249C94.8428 15.249 93.6153 15.7424 92.6946 17.0878C92.1045 15.8993 90.8296 15.249 89.2479 15.249C87.973 15.249 86.4858 15.832 85.8485 16.9084V15.563H82.8503V26.5957H85.99Z" fill="white"/>
<path d="M106.664 26.5951V15.5623H103.525V26.5951H106.664ZM103.146 11.952C103.146 12.9387 104.02 13.7684 105.083 13.7684C106.168 13.7684 107.018 12.9387 107.018 11.952C107.018 10.9205 106.168 10.0908 105.083 10.0908C104.02 10.0908 103.146 10.9205 103.146 11.952Z" fill="white"/>
<path d="M112.929 20.2492C112.929 18.971 113.732 17.9619 115.101 17.9619C116.612 17.9619 117.249 18.9262 117.249 20.1595V26.5952H120.389V19.6437C120.389 17.2219 119.067 15.271 116.187 15.271C114.936 15.271 113.543 15.7868 112.835 16.9304V15.5625H109.789V26.5952H112.929V20.2492Z" fill="white"/>
<path d="M142.25 26.5951V10.6963H137.812L132.902 22.1775L127.873 10.6963H123.577V26.5951H126.693V15.5399L131.509 26.5951H134.224L139.04 15.4502V26.5951H142.25Z" fill="white"/>
<path d="M144.852 23.5903C144.852 25.317 146.363 26.9091 148.842 26.9091C150.565 26.9091 151.675 26.1467 152.265 25.2721C152.265 25.6982 152.312 26.3036 152.383 26.5951H155.263C155.192 26.2139 155.121 25.4291 155.121 24.8461V19.4194C155.121 17.1994 153.752 15.2261 150.069 15.2261C146.953 15.2261 145.277 17.1321 145.088 18.8588L147.874 19.4194C147.968 18.4551 148.724 17.6255 150.093 17.6255C151.415 17.6255 152.052 18.2758 152.052 19.0606C152.052 19.4418 151.84 19.7558 151.179 19.8455L148.322 20.2491C146.386 20.5182 144.852 21.617 144.852 23.5903ZM149.503 24.6891C148.488 24.6891 147.992 24.0612 147.992 23.4109C147.992 22.5588 148.629 22.1327 149.432 22.0206L152.052 21.6394V22.1327C152.052 24.0836 150.825 24.6891 149.503 24.6891Z" fill="white"/>
<path d="M165.131 15.5177C164.895 15.4953 164.659 15.4729 164.399 15.4729C163.407 15.4729 161.802 15.742 161.094 17.1996V15.5626H158.048V26.5953H161.188V21.5499C161.188 19.1729 162.581 18.4329 164.186 18.4329C164.47 18.4329 164.777 18.4553 165.131 18.5226V15.5177Z" fill="white"/>
<path d="M171.437 12.2666H168.604V13.8139C168.604 14.8005 168.038 15.563 166.81 15.563H166.22V18.209H168.321V23.3442C168.321 25.4745 169.737 26.7527 172.004 26.7527C172.924 26.7527 173.491 26.5957 173.774 26.4836V24.0169C173.609 24.0618 173.184 24.1066 172.806 24.1066C171.909 24.1066 171.437 23.7927 171.437 22.8284V18.209H173.774V15.563H171.437V12.2666Z" fill="white"/>
</g>
</g>
<defs>
<clipPath id="clip0_191_340">
<rect width="174" height="37" fill="white"/>
</clipPath>
</defs>
</svg>
